<svg width="19" height="12" viewBox="0 0 19 12" fill="none" xmlns="http://www.w3.org/2000/svg">
<path d="M17.3405 10.4814L17.3406 10.4822C17.3813 10.7204 17.2737 10.968 17.0389 11.0609L17.0354 11.0623L17.0354 11.0623C16.9435 11.0955 16.8474 11.1034 16.7613 11.1034M17.3405 10.4814L16.7613 11.1034M17.3405 10.4814C17.2972 10.2378 17.0927 10.0602 16.8263 10.0602H16.8229H16.8195H16.8161H16.8127H16.8093H16.806H16.8026H16.7992H16.7958H16.7924H16.789H16.7856H16.7822H16.7788H16.7754H16.772H16.7686H16.7652H16.7618H16.7584H16.755H16.7516H16.7482H16.7448H16.7415H16.7381H16.7347H16.7313H16.7279H16.7245H16.7211H16.7177H16.7143H16.7109H16.7075H16.7041H16.7007H16.6973H16.6939H16.6905H16.6871H16.6837H16.6803H16.677H16.6736H16.6702H16.6668H16.6634H16.66H16.6566H16.6532H16.6498H16.6464H16.643H16.6396H16.6362H16.6328H16.6294H16.626H16.6226H16.6192H16.6158H16.6125H16.6091H16.6057H16.6023H16.5989H16.5955H16.5921H16.5887H16.5853H16.5819H16.5785H16.5751H16.5717H16.5683H16.5649H16.5615H16.5581H16.5547H16.5513H16.548H16.5446H16.5412H16.5378H16.5344H16.531H16.5276H16.5242H16.5208H16.5174H16.514H16.5106H16.5072H16.5038H16.5004H16.497H16.4936H16.4902H16.4868H16.4835H16.4801H16.4767H16.4733H16.4699H16.4665H16.4631H16.4597H16.4563H16.4529H16.4495H16.4461H16.4427H16.4393H16.4359H16.4325H16.4291H16.4257H16.4223H16.419H16.4156H16.4122H16.4088H16.4054H16.402H16.3986H16.3952H16.3918H16.3884H16.385H16.3816H16.3782H16.3748H16.3714H16.368H16.3646H16.3612H16.3579H16.3545H16.3511H16.3477H16.3443H16.3409H16.3375H16.3341H16.3307H16.3273H16.3239H16.3205H16.3171H16.3137H16.3103H16.3069H16.3035H16.3001H16.2967H16.2934H16.29H16.2866H16.2832H16.2798H16.2764H16.273H16.2696H16.2662H16.2628H16.2594H16.256H16.2526H16.2492H16.2458H16.2424H16.239H16.2356H16.2322H16.2289H16.2255H16.2221H16.2187H16.2153H16.2119H16.2085H16.2051H16.2017H16.1983H16.1949H16.1915H16.1881H16.1847H16.1813H16.1779H16.1745H16.1711H16.1677H16.1644H16.161H16.1576H16.1542H16.1508H16.1474H16.144H16.1406H16.1372H16.1338H16.1304H16.127H16.1236H16.1202H16.1168H16.1134H16.11H16.1066H16.1032H16.0999H16.0965H16.0931H16.0897H16.0863H16.0829H16.0795H16.0761H16.0727H16.0693H16.0659H16.0625H16.0591H16.0557H16.0523H16.0489H16.0455H16.0421H16.0387H16.0354H16.032H16.0286H16.0252H16.0218H16.0184H16.015H16.0116H16.0082H16.0048H16.0014H15.998H15.9946H15.9912H15.9878H15.9844H15.981H15.9776H15.9742H15.9709H15.9675H15.9641H15.9607H15.9573H15.9539H15.9505H15.9471H15.9437H15.9403H15.9369H15.9335H15.9301H15.9267H15.9233H15.9199H15.9165H15.9131H15.9097H15.9064H15.903H15.8996H15.8962H15.8928H15.8894H15.886H15.8826H15.8792H15.8758H15.8724H15.869H15.8656H15.8622H15.8588H15.8554H15.852H15.8486H15.8452H15.8419H15.8385H15.8351H15.8317H15.8283H15.8249H15.8215H15.8181H15.8147H15.8113H15.8079H15.8045H15.8011H15.7977H15.7943H15.7909H15.7875H15.7841H15.7808H15.7774H15.774H15.7706H15.7672H15.7638H15.7604H15.757H15.7536H15.7502H15.7468H15.7434H15.74H15.7366H15.7332H15.7298H15.7264H15.723H15.7196H15.7163H15.7129H15.7095H15.7061H15.7027H15.6993H15.6959H15.6925H15.6891H15.6857H15.6823H15.6789H15.6755H15.6721H15.6687H15.6653H15.6619H15.6585H15.6551H15.6518H15.6484H15.645H15.6416H15.6382H15.6348H15.6314H15.628H15.6246H15.6212H15.6178H15.6144H15.611H15.6076H15.6042H15.6008H15.5974H15.594H15.5906H15.5873H15.5839H15.5805H15.5771H15.5737H15.5703H15.5669H15.5635H15.5601H15.5567H15.5533H15.5499H15.5465H15.5431H15.5397H15.5363H15.5329H15.5295H15.5261H15.5228H15.5194H15.516H15.5126H15.5092H15.5058H15.5024H15.499H15.4956H15.4922H15.4888H15.4854H15.482H15.4786H15.4752H15.4718H15.4684H15.465H15.4616H15.4583H15.4549H15.4515H15.4481H15.4447H15.4413H15.4379H15.4345H15.4311H15.4277H15.4243H15.4209H15.4175H15.4141H15.4107H15.4073H15.4039H15.4005H15.3971H15.3938H15.3904H15.387H15.3836H15.3802H15.3768H15.3734H15.37H15.3666H15.3632H15.3598H15.3564H15.353H15.3496H15.3462H15.3428H15.3394H15.336H15.3326H15.3293H15.3259H15.3225H15.3191H15.3157H15.3123H15.3089H15.3055H15.3021H15.2987H15.2953H15.2919H15.2885H15.2851H15.2817H15.2783H15.2749H15.2715H15.2681H15.2648H15.2614H15.258H15.2546H15.2512H15.2478H15.2444H15.241H15.2376H15.2342H15.2308H15.2274H15.224H15.2206H15.2172H15.2138H15.2104H15.207H15.2036H15.2003H15.1969H15.1935H15.1901H15.1867H15.1833H15.1799H15.1765H15.1731H15.1697H15.1663H15.1629H15.1595H15.1561H15.1527H15.1493H15.1459H15.1425H15.1391H15.1358H15.1324H15.129H15.1256H15.1222H15.1188H15.1154H15.112H15.1086H15.1052H15.1018H15.0984H15.095H15.0916H15.0882H15.0879H15.0875H15.0871H15.0868H15.0864H15.0861H15.0857H15.0853H15.085H15.0846H15.0843H15.0839H15.0835H15.0832H15.0828H15.0825H15.0821H15.0817H15.0814H15.081H15.0807H15.0803H15.0799H15.0796H15.0792H15.0789H15.0785H15.0781H15.0778H15.0774H15.077H15.0767H15.0763H15.076H15.0756H15.0752H15.0749H15.0745H15.0742H15.0738H15.0734H15.0731H15.0727H15.0724H15.072H15.0716H15.0713H15.0709H15.0706H15.0702H15.0698H15.0695H15.0691H15.0688H15.0684H15.068H15.0677H15.0673H15.0669H15.0666H15.0662H15.0659H15.0655H15.0651H15.0648H15.0644H15.0641H15.0637H15.0633H15.063H15.0626H15.0623H15.0619H15.0615H15.0612H15.0608H15.0605H15.0601H15.0597H15.0594H15.059H15.0587H15.0583H15.0579H15.0576H15.0572H15.0568H15.0565H15.0561H15.0558H15.0554H15.055H15.0547H15.0543H15.054H15.0536H15.0532H15.0529H15.0525H15.0522H15.0518H15.0514H15.0511H15.0507H15.0504H15.05H15.0496H15.0493H15.0489H15.0486H15.0482H15.0478H15.0475H15.0471H15.0468H15.0464H15.046H15.0457H15.0453H15.0449H15.0446H15.0442H15.0439H15.0435H15.0431H15.0428H15.0424H15.0421H15.0417H15.0413H15.041H15.0406H15.0403H15.0399H15.0395H15.0392H15.0388H15.0385H15.0381H15.0377H15.0374H15.037H15.0367H15.0363H15.0359H15.0356H15.0352H15.0348H15.0345H15.0341H15.0338H15.0334H15.033H15.0327H15.0323H15.032H15.0316H15.0312H15.0309H15.0305H15.0302H15.0298H15.0294H15.0291H15.0287H15.0284H15.028H15.0276H15.0273H15.0269H15.0266H15.0262H15.0258H15.0255H15.0251H15.0247H15.0244H15.024H15.0237H15.0233H15.0229H15.0226H15.0222H15.0219H15.0215H15.0211H15.0208H15.0204H15.0201H15.0197H15.0193H15.019H15.0186H15.0183H15.0179H15.0175H15.0174C14.709 7.05375 12.3148 4.87109 9.49737 4.87109C6.69068 4.87109 4.29295 7.0465 3.98454 10.0602M17.3405 10.4814L3.98454 10.0602M16.7613 11.1034C16.7612 11.1034 16.7612 11.1034 16.7611 11.1034V10.9784L16.7615 11.1034C16.7614 11.1034 16.7613 11.1034 16.7613 11.1034ZM3.98454 10.0602H3.98347H3.97977H3.97607H3.97237H3.96866H3.96496H3.96126H3.95756H3.95386H3.95016H3.94646H3.94276H3.93906H3.93536H3.93166H3.92796H3.92426H3.92056H3.91687H3.91317H3.90947H3.90578H3.90208H3.89838H3.89469H3.89099H3.88729H3.8836H3.8799H3.87621H3.87252H3.86882H3.86513H3.86143H3.85774H3.85405H3.85036H3.84666H3.84297H3.83928H3.83559H3.8319H3.8282H3.82451H3.82082H3.81713H3.81344H3.80975H3.80606H3.80237H3.79869H3.795H3.79131H3.78762H3.78393H3.78025H3.77656H3.77287H3.76918H3.7655H3.76181H3.75813H3.75444H3.75075H3.74707H3.74338H3.7397H3.73601H3.73233H3.72865H3.72496H3.72128H3.7176H3.71391H3.71023H3.70655H3.70287H3.69918H3.6955H3.69182H3.68814H3.68446H3.68078H3.6771H3.67342H3.66974H3.66606H3.66238H3.6587H3.65502H3.65134H3.64766H3.64398H3.6403H3.63663H3.63295H3.62927H3.62559H3.62192H3.61824H3.61456H3.61089H3.60721H3.60353H3.59986H3.59618H3.59251H3.58883H3.58516H3.58148H3.57781H3.57414H3.57046H3.56679H3.56311H3.55944H3.55577H3.55209H3.54842H3.54475H3.54108H3.53741H3.53373H3.53006H3.52639H3.52272H3.51905H3.51538H3.51171H3.50804H3.50437H3.5007H3.49703H3.49336H3.48969H3.48602H3.48235H3.47868H3.46401H3.46034H3.45667H3.453H3.44934H3.44567H3.442H3.43834H3.43467H3.431H3.42734H3.42367H3.42001H3.41634H3.41268H3.40901H3.40535H3.40168H3.39802H3.39435H3.39069H3.38702H3.38336H3.37969H3.37603H3.37237H3.3687H3.36504H3.36138H3.35772H3.35405H3.35039H3.34673H3.34307H3.3394H3.33574H3.33208H3.32842H3.32476H3.3211H3.31744H3.31378H3.31011H3.30645H3.30279H3.29913H3.29547H3.29181H3.28815H3.28449H3.28084H3.27718H3.27352H3.26986H3.2662H3.26254H3.25888H3.25522H3.25157H3.24791H3.24425H3.24059H3.23693H3.23328H3.22962H3.22596H3.22231H3.21865H3.21499H3.21134H3.20768H3.20402H3.20037H3.19671H3.19305H3.1894H3.18574H3.18209H3.17843H3.17478H3.17112H3.16747H3.16381H3.16016H3.1565H3.15285H3.14919H3.14554H3.14188H3.13823H3.13458H3.13092H3.12727H3.12361H3.11996H3.11631H3.11265H3.109H3.10535H3.1017H3.09804H3.09439H3.09074H3.08709H3.08343H3.07978H3.07613H3.07248H3.06882H3.06517H3.06152H3.05787H3.05422H3.05057H3.04692H3.04326H3.03961H3.03596H3.03231H3.02866H3.02501H3.02136H3.01771H3.01406H3.01041H3.00676H3.00311H2.99946H2.99581H2.99216H2.98851H2.98486H2.98121H2.97756H2.97391H2.97026H2.96661H2.96296H2.95931H2.95566H2.95201H2.94837H2.94472H2.94107H2.93742H2.93377H2.93012H2.92647H2.92283H2.91918H2.91553H2.91188H2.90823H2.90458H2.90094H2.89729H2.89364H2.88999H2.88635H2.8827H2.87905H2.8754H2.87176H2.86811H2.86446H2.86081H2.85717H2.85352H2.84987H2.84623H2.84258H2.83893H2.83528H2.83164H2.82799H2.82434H2.8207H2.81705H2.8134H2.80976H2.80611H2.80247H2.79882H2.79517H2.79153H2.78788H2.78423H2.78059H2.77694H2.7733H2.76965H2.766H2.76236H2.75871H2.75507H2.75142H2.74777H2.74413H2.74048H2.73684H2.73319H2.72955H2.7259H2.72225H2.71861H2.71496H2.71132H2.70767H2.70403H2.70038H2.69674H2.69309H2.68945H2.6858H2.68216H2.67851H2.67486H2.67122H2.66757H2.66393H2.66028H2.65664H2.65299H2.64935H2.6457H2.64206H2.63841H2.63477H2.63112H2.62748H2.62383H2.62019H2.61654H2.6129H2.60925H2.60561H2.60196H2.59832H2.59467H2.59103H2.58738H2.58374H2.58009H2.57645H2.5728H2.56916H2.56551H2.56187H2.55822H2.55458H2.55093H2.54729H2.54364H2.54H2.53635H2.5327H2.52906H2.52541H3.98454Z" fill="#1C355E" stroke="#1C355E" stroke-width="0.25"/>
<path d="M9.49071 4.32758L9.49071 4.32757C9.33734 4.3252 9.20318 4.26697 9.10965 4.15347C9.0184 4.04274 8.97656 3.89263 8.97656 3.7237V3.71936V3.71502V3.71068V3.70634V3.702V3.69766V3.69331V3.68897V3.68463V3.68029V3.67595V3.67161V3.66727V3.66293V3.65859V3.65425V3.64991V3.64557V3.64123V3.63689V3.63255V3.62821V3.62387V3.61953V3.61519V3.61085V3.60651V3.60216V3.59782V3.59348V3.58914V3.5848V3.58046V3.57612V3.57178V3.56744V3.5631V3.55876V3.55442V3.55008V3.54574V3.5414V3.53706V3.53272V3.52838V3.52404V3.5197V3.51536V3.51102V3.50668V3.50233V3.49799V3.49365V3.48931V3.48497V3.48063V3.47629V3.47195V3.46761V3.46327V3.45893V3.45459V3.45025V3.44591V3.44157V3.43723V3.43289V3.42855V3.42421V3.41987V3.41553V3.41118V3.40684V3.4025V3.39816V3.39382V3.38948V3.38514V3.3808V3.37646V3.37212V3.36778V3.36344V3.3591V3.35476V3.35042V3.34608V3.34174V3.3374V3.33306V3.32872V3.32438V3.32004V3.31569V3.31135V3.30701V3.30267V3.29833V3.29399V3.28965V3.28531V3.28097V3.27663V3.27229V3.26795V3.26361V3.25927V3.25493V3.25059V3.24625V3.24191V3.23757V3.23323V3.22889V3.22455V3.2202V3.21586V3.21152V3.20718V3.20284V3.1985V3.19416V3.18982V3.18548V3.18114V3.1768V3.17246V3.16812V3.16378V3.15944V3.1551V3.15076V3.14642V3.14208V3.13774V3.1334V3.12906V3.12471V3.12037V3.11603V3.11169V3.10735V3.10301V3.09867V3.09433V3.08999V3.08565V3.08131V3.07697V3.07263V3.06829V3.06395V3.05961V3.05527V3.05093V3.04659V3.04225V3.03791V3.03356V3.02922V3.02488V3.02054V3.0162V3.01186V3.00752V3.00318V2.99884V2.9945V2.99016V2.98582V2.98148V2.97714V2.9728V2.96846V2.96412V2.95978V2.95544V2.9511V2.94676V2.94242V2.93807V2.93373V2.92939V2.92505V2.92071V2.91637V2.91203V2.90769V2.90335V2.89901V2.89467V2.89033V2.88599V2.88165V2.87731V2.87297V2.86863V2.86429V2.85995V2.85561V2.85127V2.84693V2.84258V2.83824V2.8339V2.82956V2.82522V2.82088V2.81654V2.8122V2.80786V2.80352V2.79918V2.79484V2.7905V2.78616V2.78182V2.77748V2.77314V2.7688V2.76446V2.76012V2.75578V2.75143V2.74709V2.74275V2.73841V2.73407V2.72973V2.72539V2.72105V2.71671V2.71237V2.70803V2.70369V2.69935V2.69501V2.69067V2.68633V2.68199V2.67765V2.67331V2.66897V2.66463V2.66029V2.65594V2.6516V2.64726V2.64292V2.63858V2.63424V2.6299V2.62556V2.62122V2.61688V2.61254V2.6082V2.60386V2.59952V2.59518V2.59084V2.5865V2.58216V2.57782V2.57348V2.56914V2.5648V2.56045V2.55611V2.55177V2.54743V2.54309V2.53875V2.53441V2.53007V2.52573V2.52139V2.51705V2.51271V2.50837V2.50403V2.49969V2.49535V2.49101V2.48667V2.48233V2.47799V2.47365V2.46931V2.46496V2.46062V2.45628V2.45194V2.4476V2.44326V2.43892V2.43458V2.43024V2.4259V2.42156V2.41722V2.41288V2.40854V2.4042V2.39986V2.39552V2.39118V2.38684V2.3825V2.37816V2.37381V2.36947V2.36513V2.36079V2.35645V2.35211V2.34777V2.34343V2.33909V2.33475V2.33041V2.32607V2.32173V2.31739V2.31305V2.30871V2.30437V2.30003V2.29569V2.29135V2.28701V2.28267V2.27832V2.27398V2.26964V2.2653V2.26096V2.25662V2.25228V2.24794V2.2436V2.23926V2.23492V2.23058V2.22624V2.2219V2.21756V2.21322V2.20888V2.20454V2.2002V2.19586V2.19152V2.18718V2.18283V2.17849V2.17415V2.16981V2.16547V2.16113V2.15679V2.15245V2.14811V2.14377V2.13943V2.13509V2.13075V2.12641V2.12207V2.11773V2.11339V2.10905V2.10471V2.10037V2.09603V2.09169V2.08734V2.083V2.07866V2.07432V2.06998V2.06564V2.0613V2.05696V2.05262V2.04828V2.04394V2.0396V2.03526V2.03092V2.02658V2.02224V2.0179V2.01356V2.00922V2.00488V2.00054V1.99619V1.99185V1.98751V1.98317V1.97883V1.97449V1.97015V1.96581V1.96147V1.95713V1.95279V1.94845V1.94411V1.93977V1.93543V1.93109V1.92675V1.92241V1.91807V1.91373V1.90939V1.90505V1.9007V1.89636V1.89202V1.88768V1.88334V1.879V1.87466V1.87032V1.86598V1.86164V1.8573V1.85296V1.84862V1.84428V1.83994V1.8356V1.83126V1.82692V1.82258V1.81824V1.8139V1.80956V1.80521V1.80087V1.79653V1.79219V1.78785V1.78351V1.77917V1.77483V1.77049V1.76615V1.76181V1.75747V1.75313V1.74879V1.74445V1.74011V1.73577V1.73143V1.72709V1.72275V1.71841V1.71407V1.70972V1.70538V1.70104V1.6967V1.69236V1.68802V1.68368V1.67934V1.675V1.67066V1.66632V1.66198V1.65764V1.6533V1.64896V1.64462V1.64028V1.63594V1.6316V1.62726V1.62292V1.61857V1.61423V1.60989V1.60555V1.60121V1.59687V1.59253V1.58819V1.58385V1.57951V1.57517V1.57083V1.56649V1.56215V1.55781V1.55347V1.54913V1.54479V1.54045V1.53611V1.53177V1.52743V1.52308V1.51874V1.5144V1.51006V1.50572V1.50138C8.97656 1.33027 9.01942 1.17626 9.10894 1.06157C9.20072 0.943985 9.33439 0.877514 9.49068 0.875067C9.6486 0.872595 9.78484 0.938351 9.87875 1.05491C9.97046 1.16874 10.0158 1.32287 10.0159 1.49327M9.49071 4.32758L10.0159 1.4939C10.0159 1.49369 10.0159 1.49348 10.0159 1.49327M9.49071 4.32758H9.49263M9.49071 4.32758H9.49263M10.0159 1.49327C10.0196 1.86404 10.0196 2.23845 10.0196 2.61213M10.0159 1.49327L10.0196 2.61213M9.49263 4.32758C9.64742 4.32758 9.78411 4.27116 9.8804 4.16004C9.9749 4.051 10.0196 3.90207 10.0196 3.73492V3.73273M9.49263 4.32758L10.0196 3.73273M10.0196 3.73273V3.73054M10.0196 3.73273V3.73054M10.0196 3.73054V3.72835M10.0196 3.73054V3.72835M10.0196 3.72835V3.72615M10.0196 3.72835V3.72615M10.0196 3.72615V3.72396M10.0196 3.72615V3.72396M10.0196 3.72396V3.72177M10.0196 3.72396V3.72177M10.0196 3.72177V3.71958M10.0196 3.72177V3.71958M10.0196 3.71958V3.71738M10.0196 3.71958V3.71738M10.0196 3.71738V3.71519M10.0196 3.71738V3.71519M10.0196 3.71519V3.713M10.0196 3.71519V3.713M10.0196 3.713V3.71081M10.0196 3.713V3.71081M10.0196 3.71081V3.70862M10.0196 3.71081V3.70862M10.0196 3.70862V3.70642M10.0196 3.70862V3.70642M10.0196 3.70642V3.70423M10.0196 3.70642V3.70423M10.0196 3.70423V3.70204M10.0196 3.70423V3.70204M10.0196 3.70204V3.69985M10.0196 3.70204V3.69985M10.0196 3.69985V3.69765M10.0196 3.69985V3.69765M10.0196 3.69765V3.69546M10.0196 3.69765V3.69546M10.0196 3.69546V3.69327M10.0196 3.69546V3.69327M10.0196 3.69327V3.69108M10.0196 3.69327V3.69108M10.0196 3.69108V3.68889M10.0196 3.69108V3.68889M10.0196 3.68889V3.68669M10.0196 3.68889V3.68669M10.0196 3.68669V3.6845M10.0196 3.68669V3.6845M10.0196 3.6845V3.68231M10.0196 3.6845V3.68231M10.0196 3.68231V3.68012M10.0196 3.68231V3.68012M10.0196 3.68012V3.67793M10.0196 3.68012V3.67793M10.0196 3.67793V3.67573M10.0196 3.67793V3.67573M10.0196 3.67573V3.67354M10.0196 3.67573V3.67354M10.0196 3.67354V3.67135M10.0196 3.67354V3.67135M10.0196 3.67135V3.66916M10.0196 3.67135V3.66916M10.0196 3.66916V3.66696M10.0196 3.66916V3.66696M10.0196 3.66696V3.66477M10.0196 3.66696V3.66477M10.0196 3.66477V3.66258M10.0196 3.66477V3.66258M10.0196 3.66258V3.66039M10.0196 3.66258V3.66039M10.0196 3.66039V3.6582M10.0196 3.66039V3.6582M10.0196 3.6582V3.656M10.0196 3.6582V3.656M10.0196 3.656V3.65381M10.0196 3.656V3.65381M10.0196 3.65381V3.65162M10.0196 3.65381V3.65162M10.0196 3.65162V3.64943M10.0196 3.65162V3.64943M10.0196 3.64943V3.64724M10.0196 3.64943V3.64724M10.0196 3.64724V3.64504M10.0196 3.64724V3.64504M10.0196 3.64504V3.64285M10.0196 3.64504V3.64285M10.0196 3.64285V3.64066M10.0196 3.64285V3.64066M10.0196 3.64066V3.63847M10.0196 3.64066V3.63847M10.0196 3.63847V3.63627M10.0196 3.63847V3.63627M10.0196 3.63627V3.63408M10.0196 3.63627V3.63408M10.0196 3.63408V3.63189M10.0196 3.63408V3.63189M10.0196 3.63189V3.6297M10.0196 3.63189V3.6297M10.0196 3.6297V3.62751M10.0196 3.6297V3.62751M10.0196 3.62751V3.62531M10.0196 3.62751V3.62531M10.0196 3.62531V3.62312M10.0196 3.62531V3.62312M10.0196 3.62312V3.62093M10.0196 3.62312V3.62093M10.0196 3.62093V3.61874M10.0196 3.62093V3.61874M10.0196 3.61874V3.61655M10.0196 3.61874V3.61655M10.0196 3.61655V3.61435M10.0196 3.61655V3.61435M10.0196 3.61435V3.61216M10.0196 3.61435V3.61216M10.0196 3.61216V3.60997M10.0196 3.61216V3.60997M10.0196 3.60997V3.60778M10.0196 3.60997V3.60778M10.0196 3.60778V3.60558M10.0196 3.60778V3.60558M10.0196 3.60558V3.60339M10.0196 3.60558V3.60339M10.0196 3.60339V3.6012M10.0196 3.60339V3.6012M10.0196 3.6012V3.59901M10.0196 3.6012V3.59901M10.0196 3.59901V3.59682M10.0196 3.59901V3.59682M10.0196 3.59682V3.59462M10.0196 3.59682V3.59462M10.0196 3.59462V3.59243M10.0196 3.59462V3.59243M10.0196 3.59243V3.59024M10.0196 3.59243V3.59024M10.0196 3.59024V3.58805M10.0196 3.59024V3.58805M10.0196 3.58805V3.58586M10.0196 3.58805V3.58586M10.0196 3.58586V3.58366M10.0196 3.58586V3.58366M10.0196 3.58366V3.58147M10.0196 3.58366V3.58147M10.0196 3.58147V3.57928M10.0196 3.58147V3.57928M10.0196 3.57928V3.57709M10.0196 3.57928V3.57709M10.0196 3.57709V3.57489M10.0196 3.57709V3.57489M10.0196 3.57489V3.5727M10.0196 3.57489V3.5727M10.0196 3.5727V3.57051M10.0196 3.5727V3.57051M10.0196 3.57051V3.56832M10.0196 3.57051V3.56832M10.0196 3.56832V3.56613M10.0196 3.56832V3.56613M10.0196 3.56613V3.56393M10.0196 3.56613V3.56393M10.0196 3.56393V3.56174M10.0196 3.56393V3.56174M10.0196 3.56174V3.55955M10.0196 3.56174V3.55955M10.0196 3.55955V3.55736M10.0196 3.55955V3.55736M10.0196 3.55736V3.55517M10.0196 3.55736V3.55517M10.0196 3.55517V3.55297M10.0196 3.55517V3.55297M10.0196 3.55297V3.55078M10.0196 3.55297V3.55078M10.0196 3.55078V3.54859M10.0196 3.55078V3.54859M10.0196 3.54859V3.5464M10.0196 3.54859V3.5464M10.0196 3.5464V3.5442M10.0196 3.5464V3.5442M10.0196 3.5442V3.54201M10.0196 3.5442V3.54201M10.0196 3.54201V3.53982M10.0196 3.54201V3.53982M10.0196 3.53982V3.53763M10.0196 3.53982V3.53763M10.0196 3.53763V3.53544M10.0196 3.53763V3.53544M10.0196 3.53544V3.53324M10.0196 3.53544V3.53324M10.0196 3.53324V3.53105M10.0196 3.53324V3.53105M10.0196 3.53105V3.52886M10.0196 3.53105V3.52886M10.0196 3.52886V3.52667M10.0196 3.52886V3.52667M10.0196 3.52667V3.52448M10.0196 3.52667V3.52448M10.0196 3.52448V3.52228M10.0196 3.52448V3.52228M10.0196 3.52228V3.52009M10.0196 3.52228V3.52009M10.0196 3.52009V3.5179M10.0196 3.52009V3.5179M10.0196 3.5179V3.51571M10.0196 3.5179V3.51571M10.0196 3.51571V3.51351M10.0196 3.51571V3.51351M10.0196 3.51351V3.51132M10.0196 3.51351V3.51132M10.0196 3.51132V3.50913M10.0196 3.51132V3.50913M10.0196 3.50913V3.50694M10.0196 3.50913V3.50694M10.0196 3.50694V3.50475M10.0196 3.50694V3.50475M10.0196 3.50475V3.50255M10.0196 3.50475V3.50255M10.0196 3.50255V3.50036M10.0196 3.50255V3.50036M10.0196 3.50036V3.49817M10.0196 3.50036V3.49817M10.0196 3.49817V3.49598M10.0196 3.49817V3.49598M10.0196 3.49598V3.49378M10.0196 3.49598V3.49378M10.0196 3.49378V3.49159M10.0196 3.49378V3.49159M10.0196 3.49159V3.4894M10.0196 3.49159V3.4894M10.0196 3.4894V3.48721M10.0196 3.4894V3.48721M10.0196 3.48721V3.48502M10.0196 3.48721V3.48502M10.0196 3.48502V3.48282M10.0196 3.48502V3.48282M10.0196 3.48282V3.48063M10.0196 3.48282V3.48063M10.0196 3.48063V3.47844M10.0196 3.48063V3.47844M10.0196 3.47844V3.47625M10.0196 3.47844V3.47625M10.0196 3.47625V3.47406M10.0196 3.47625V3.47406M10.0196 3.47406V3.47186M10.0196 3.47406V3.47186M10.0196 3.47186V3.46967M10.0196 3.47186V3.46967M10.0196 3.46967V3.46748M10.0196 3.46967V3.46748M10.0196 3.46748V3.46529M10.0196 3.46748V3.46529M10.0196 3.46529V3.46309M10.0196 3.46529V3.46309M10.0196 3.46309V3.4609M10.0196 3.46309V3.4609M10.0196 3.4609V3.45871M10.0196 3.4609V3.45871M10.0196 3.45871V3.45652M10.0196 3.45871V3.45652M10.0196 3.45652V3.45433M10.0196 3.45652V3.45433M10.0196 3.45433V3.45213M10.0196 3.45433V3.45213M10.0196 3.45213V3.44994M10.0196 3.45213V3.44994M10.0196 3.44994V3.44775M10.0196 3.44994V3.44775M10.0196 3.44775V3.44556M10.0196 3.44775V3.44556M10.0196 3.44556V3.44337M10.0196 3.44556V3.44337M10.0196 3.44337V3.44117M10.0196 3.44337V3.44117M10.0196 3.44117V3.43898M10.0196 3.44117V3.43898M10.0196 3.43898V3.43679M10.0196 3.43898V3.43679M10.0196 3.43679V3.4346M10.0196 3.43679V3.4346M10.0196 3.4346V3.4324M10.0196 3.4346V3.4324M10.0196 3.4324V3.43021M10.0196 3.4324V3.43021M10.0196 3.43021V3.42802M10.0196 3.43021V3.42802M10.0196 3.42802V3.42583M10.0196 3.42802V3.42583M10.0196 3.42583V3.42364M10.0196 3.42583V3.42364M10.0196 3.42364V3.42144M10.0196 3.42364V3.42144M10.0196 3.42144V3.41925M10.0196 3.42144V3.41925M10.0196 3.41925V3.41706M10.0196 3.41925V3.41706M10.0196 3.41706V3.41487M10.0196 3.41706V3.41487M10.0196 3.41487V3.41268M10.0196 3.41487V3.41268M10.0196 3.41268V3.41048M10.0196 3.41268V3.41048M10.0196 3.41048V3.40829M10.0196 3.41048V3.40829M10.0196 3.40829V3.4061M10.0196 3.40829V3.4061M10.0196 3.4061V3.40391M10.0196 3.4061V3.40391M10.0196 3.40391V3.40171M10.0196 3.40391V3.40171M10.0196 3.40171V3.39952M10.0196 3.40171V3.39952M10.0196 3.39952V3.39733M10.0196 3.39952V3.39733M10.0196 3.39733V3.39514M10.0196 3.39733V3.39514M10.0196 3.39514V3.39295M10.0196 3.39514V3.39295M10.0196 3.39295V3.39075M10.0196 3.39295V3.39075M10.0196 3.39075V3.38856M10.0196 3.39075V3.38856M10.0196 3.38856V3.38637M10.0196 3.38856V3.38637M10.0196 3.38637V3.38418M10.0196 3.38637V3.38418M10.0196 3.38418V3.38199M10.0196 3.38418V3.38199M10.0196 3.38199V3.37979M10.0196 3.38199V3.37979M10.0196 3.37979V3.3776M10.0196 3.37979V3.3776M10.0196 3.3776V3.37541M10.0196 3.3776V3.37541M10.0196 3.37541V3.37322M10.0196 3.37541V3.37322M10.0196 3.37322V3.37102M10.0196 3.37322V3.37102M10.0196 3.37102V3.36883M10.0196 3.37102V3.36883M10.0196 3.36883V3.36664M10.0196 3.36883V3.36664M10.0196 3.36664V3.36445M10.0196 3.36664V3.36445M10.0196 3.36445V3.36226M10.0196 3.36445V3.36226M10.0196 3.36226V3.36006M10.0196 3.36226V3.36006M10.0196 3.36006V3.35787M10.0196 3.36006V3.35787M10.0196 3.35787V3.35568M10.0196 3.35787V3.35568M10.0196 3.35568V3.35349M10.0196 3.35568V3.35349M10.0196 3.35349V3.35129M10.0196 3.35349V3.35129M10.0196 3.35129V3.3491M10.0196 3.35129V3.3491M10.0196 3.3491V3.34691M10.0196 3.3491V3.34691M10.0196 3.34691V3.34472M10.0196 3.34691V3.34472M10.0196 3.34472V3.34253M10.0196 3.34472V3.34253M10.0196 3.34253V3.34033M10.0196 3.34253V3.34033M10.0196 3.34033V3.33814M10.0196 3.34033V3.33814M10.0196 3.33814V3.33595M10.0196 3.33814V3.33595M10.0196 3.33595V3.33376M10.0196 3.33595V3.33376M10.0196 3.33376V3.33157M10.0196 3.33376V3.33157M10.0196 3.33157V3.32937M10.0196 3.33157V3.32937M10.0196 3.32937V3.32718M10.0196 3.32937V3.32718M10.0196 3.32718V3.32499M10.0196 3.32718V3.32499M10.0196 3.32499V3.3228M10.0196 3.32499V3.3228M10.0196 3.3228V3.32061M10.0196 3.3228V3.32061M10.0196 3.32061V3.31841M10.0196 3.32061V3.31841M10.0196 3.31841V3.31622M10.0196 3.31841V3.31622M10.0196 3.31622V3.31403M10.0196 3.31622V3.31403M10.0196 3.31403V3.31184M10.0196 3.31403V3.31184M10.0196 3.31184V3.30964M10.0196 3.31184V3.30964M10.0196 3.30964V3.30745M10.0196 3.30964V3.30745M10.0196 3.30745V3.30526M10.0196 3.30745V3.30526M10.0196 3.30526V3.30307M10.0196 3.30526V3.30307M10.0196 3.30307V3.30088M10.0196 3.30307V3.30088M10.0196 3.30088V3.29868M10.0196 3.30088V3.29868M10.0196 3.29868V3.29649M10.0196 3.29868V3.29649M10.0196 3.29649V3.2943M10.0196 3.29649V3.2943M10.0196 3.2943V3.29211M10.0196 3.2943V3.29211M10.0196 3.29211V3.28991M10.0196 3.29211V3.28991M10.0196 3.28991V3.28772M10.0196 3.28991V3.28772M10.0196 3.28772V3.28553M10.0196 3.28772V3.28553M10.0196 3.28553V3.28334M10.0196 3.28553V3.28334M10.0196 3.28334V3.28115M10.0196 3.28334V3.28115M10.0196 3.28115V3.27895M10.0196 3.28115V3.27895M10.0196 3.27895V3.27676M10.0196 3.27895V3.27676M10.0196 3.27676V3.27457M10.0196 3.27676V3.27457M10.0196 3.27457V3.27238M10.0196 3.27457V3.27238M10.0196 3.27238V3.27019M10.0196 3.27238V3.27019M10.0196 3.27019V3.26799M10.0196 3.27019V3.26799M10.0196 3.26799V3.2658M10.0196 3.26799V3.2658M10.0196 3.2658V3.26361M10.0196 3.2658V3.26361M10.0196 3.26361V3.26142M10.0196 3.26361V3.26142M10.0196 3.26142V3.25922M10.0196 3.26142V3.25922M10.0196 3.25922V3.25703M10.0196 3.25922V3.25703M10.0196 3.25703V3.25484M10.0196 3.25703V3.25484M10.0196 3.25484V3.25265M10.0196 3.25484V3.25265M10.0196 3.25265V3.25046M10.0196 3.25265V3.25046M10.0196 3.25046V3.24826M10.0196 3.25046V3.24826M10.0196 3.24826V3.24607M10.0196 3.24826V3.24607M10.0196 3.24607V3.24388M10.0196 3.24607V3.24388M10.0196 3.24388V3.24169M10.0196 3.24388V3.24169M10.0196 3.24169V3.2395M10.0196 3.24169V3.2395M10.0196 3.2395V3.2373M10.0196 3.2395V3.2373M10.0196 3.2373V3.23511M10.0196 3.2373V3.23511M10.0196 3.23511V3.23292M10.0196 3.23511V3.23292M10.0196 3.23292V3.23073M10.0196 3.23292V3.23073M10.0196 3.23073V3.22853M10.0196 3.23073V3.22853M10.0196 3.22853V3.22634M10.0196 3.22853V3.22634M10.0196 3.22634V3.22415M10.0196 3.22634V3.22415M10.0196 3.22415V3.22196M10.0196 3.22415V3.22196M10.0196 3.22196V3.21977M10.0196 3.22196V3.21977M10.0196 3.21977V3.21757M10.0196 3.21977V3.21757M10.0196 3.21757V3.21538M10.0196 3.21757V3.21538M10.0196 3.21538V3.21319M10.0196 3.21538V3.21319M10.0196 3.21319V3.211M10.0196 3.21319V3.211M10.0196 3.211V3.20881M10.0196 3.211V3.20881M10.0196 3.20881V3.20661M10.0196 3.20881V3.20661M10.0196 3.20661V3.20442M10.0196 3.20661V3.20442M10.0196 3.20442V3.20223M10.0196 3.20442V3.20223M10.0196 3.20223V3.20004M10.0196 3.20223V3.20004M10.0196 3.20004V3.19784M10.0196 3.20004V3.19784M10.0196 3.19784V3.19565M10.0196 3.19784V3.19565M10.0196 3.19565V3.19346M10.0196 3.19565V3.19346M10.0196 3.19346V3.19127M10.0196 3.19346V3.19127M10.0196 3.19127V3.18908M10.0196 3.19127V3.18908M10.0196 3.18908V3.18688M10.0196 3.18908V3.18688M10.0196 3.18688V3.18469M10.0196 3.18688V3.18469M10.0196 3.18469V3.1825M10.0196 3.18469V3.1825M10.0196 3.1825V3.18031M10.0196 3.1825V3.18031M10.0196 3.18031V3.17812M10.0196 3.18031V3.17812M10.0196 3.17812V3.17592M10.0196 3.17812V3.17592M10.0196 3.17592V3.17373M10.0196 3.17592V3.17373M10.0196 3.17373V3.17154M10.0196 3.17373V3.17154M10.0196 3.17154V3.16935M10.0196 3.17154V3.16935M10.0196 3.16935V3.16715M10.0196 3.16935V3.16715M10.0196 3.16715V3.16496M10.0196 3.16715V3.16496M10.0196 3.16496V3.16277M10.0196 3.16496V3.16277M10.0196 3.16277V3.16058M10.0196 3.16277V3.16058M10.0196 3.16058V3.15839M10.0196 3.16058V3.15839M10.0196 3.15839V3.15619M10.0196 3.15839V3.15619M10.0196 3.15619V3.154M10.0196 3.15619V3.154M10.0196 3.154V3.15181M10.0196 3.154V3.15181M10.0196 3.15181V3.14962M10.0196 3.15181V3.14962M10.0196 3.14962V3.14743M10.0196 3.14962V3.14743M10.0196 3.14743V3.14523M10.0196 3.14743V3.14523M10.0196 3.14523V3.14304M10.0196 3.14523V3.14304M10.0196 3.14304V3.14085M10.0196 3.14304V3.14085M10.0196 3.14085V3.13866M10.0196 3.14085V3.13866M10.0196 3.13866V3.13646M10.0196 3.13866V3.13646M10.0196 3.13646V3.13427M10.0196 3.13646V3.13427M10.0196 3.13427V3.13208M10.0196 3.13427V3.13208M10.0196 3.13208V3.12989M10.0196 3.13208V3.12989M10.0196 3.12989V3.1277M10.0196 3.12989V3.1277M10.0196 3.1277V3.1255M10.0196 3.1277V3.1255M10.0196 3.1255V3.12331M10.0196 3.1255V3.12331M10.0196 3.12331V3.12112M10.0196 3.12331V3.12112M10.0196 3.12112V3.11893M10.0196 3.12112V3.11893M10.0196 3.11893V3.11673M10.0196 3.11893V3.11673M10.0196 3.11673V3.11454M10.0196 3.11673V3.11454M10.0196 3.11454V3.11235M10.0196 3.11454V3.11235M10.0196 3.11235V3.11016M10.0196 3.11235V3.11016M10.0196 3.11016V3.10797M10.0196 3.11016V3.10797M10.0196 3.10797V3.10577M10.0196 3.10797V3.10577M10.0196 3.10577V3.10358M10.0196 3.10577V3.10358M10.0196 3.10358V3.10139M10.0196 3.10358V3.10139M10.0196 3.10139V3.0992M10.0196 3.10139V3.0992M10.0196 3.0992V3.09701M10.0196 3.0992V3.09701M10.0196 3.09701V3.09481M10.0196 3.09701V3.09481M10.0196 3.09481V3.09262M10.0196 3.09481V3.09262M10.0196 3.09262V3.09043M10.0196 3.09262V3.09043M10.0196 3.09043V3.08824M10.0196 3.09043V3.08824M10.0196 3.08824V3.08604M10.0196 3.08824V3.08604M10.0196 3.08604V3.08385M10.0196 3.08604V3.08385M10.0196 3.08385V3.08166M10.0196 3.08385V3.08166M10.0196 3.08166V3.07947M10.0196 3.08166V3.07947M10.0196 3.07947V3.07728M10.0196 3.07947V3.07728M10.0196 3.07728V3.07508M10.0196 3.07728V3.07508M10.0196 3.07508V3.07289M10.0196 3.07508V3.07289M10.0196 3.07289V3.0707M10.0196 3.07289V3.0707M10.0196 3.0707V3.06851M10.0196 3.0707V3.06851M10.0196 3.06851V3.06632M10.0196 3.06851V3.06632M10.0196 3.06632V3.06412M10.0196 3.06632V3.06412M10.0196 3.06412V3.06193M10.0196 3.06412V3.06193M10.0196 3.06193V3.05974M10.0196 3.06193V3.05974M10.0196 3.05974V3.05755M10.0196 3.05974V3.05755M10.0196 3.05755V3.05535M10.0196 3.05755V3.05535M10.0196 3.05535V3.05316M10.0196 3.05535V3.05316M10.0196 3.05316V3.05097M10.0196 3.05316V3.05097M10.0196 3.05097V3.04878M10.0196 3.05097V3.04878M10.0196 3.04878V3.04659M10.0196 3.04878V3.04659M10.0196 3.04659V3.04439M10.0196 3.04659V3.04439M10.0196 3.04439V3.0422M10.0196 3.04439V3.0422M10.0196 3.0422V3.04001M10.0196 3.0422V3.04001M10.0196 3.04001V3.03782M10.0196 3.04001V3.03782M10.0196 3.03782V3.03563M10.0196 3.03782V3.03563M10.0196 3.03563V3.03343M10.0196 3.03563V3.03343M10.0196 3.03343V3.03124M10.0196 3.03343V3.03124M10.0196 3.03124V3.02905M10.0196 3.03124V3.02905M10.0196 3.02905V3.02686M10.0196 3.02905V3.02686M10.0196 3.02686V3.02466M10.0196 3.02686V3.02466M10.0196 3.02466V3.02247M10.0196 3.02466V3.02247M10.0196 3.02247V3.02028M10.0196 3.02247V3.02028M10.0196 3.02028V3.01809M10.0196 3.02028V3.01809M10.0196 3.01809V3.0159M10.0196 3.01809V3.0159M10.0196 3.0159V3.0137M10.0196 3.0159V3.0137M10.0196 3.0137V3.01151M10.0196 3.0137V3.01151M10.0196 3.01151V3.00932M10.0196 3.01151V3.00932M10.0196 3.00932V3.00713M10.0196 3.00932V3.00713M10.0196 3.00713V3.00494M10.0196 3.00713V3.00494M10.0196 3.00494V3.00274M10.0196 3.00494V3.00274M10.0196 3.00274V3.00055M10.0196 3.00274V3.00055M10.0196 3.00055V2.99836M10.0196 3.00055V2.99836M10.0196 2.99836V2.99617M10.0196 2.99836V2.99617M10.0196 2.99617V2.99397M10.0196 2.99617V2.99397M10.0196 2.99397V2.99178M10.0196 2.99397V2.99178M10.0196 2.99178V2.98959M10.0196 2.99178V2.98959M10.0196 2.98959V2.9874M10.0196 2.98959V2.9874M10.0196 2.9874V2.98521M10.0196 2.9874V2.98521M10.0196 2.98521V2.98301M10.0196 2.98521V2.98301M10.0196 2.98301V2.98082M10.0196 2.98301V2.98082M10.0196 2.98082V2.97863M10.0196 2.98082V2.97863M10.0196 2.97863V2.97644M10.0196 2.97863V2.97644M10.0196 2.97644V2.97425M10.0196 2.97644V2.97425M10.0196 2.97425V2.97205M10.0196 2.97425V2.97205M10.0196 2.97205V2.96986M10.0196 2.97205V2.96986M10.0196 2.96986V2.96767M10.0196 2.96986V2.96767M10.0196 2.96767V2.96548M10.0196 2.96767V2.96548M10.0196 2.96548V2.96328M10.0196 2.96548V2.96328M10.0196 2.96328V2.96109M10.0196 2.96328V2.96109M10.0196 2.96109V2.9589M10.0196 2.96109V2.9589M10.0196 2.9589V2.95671M10.0196 2.9589V2.95671M10.0196 2.95671V2.95452M10.0196 2.95671V2.95452M10.0196 2.95452V2.95232M10.0196 2.95452V2.95232M10.0196 2.95232V2.95013M10.0196 2.95232V2.95013M10.0196 2.95013V2.94794M10.0196 2.95013V2.94794M10.0196 2.94794V2.94575M10.0196 2.94794V2.94575M10.0196 2.94575V2.94355M10.0196 2.94575V2.94355M10.0196 2.94355V2.94136M10.0196 2.94355V2.94136M10.0196 2.94136V2.93917M10.0196 2.94136V2.93917M10.0196 2.93917V2.93698M10.0196 2.93917V2.93698M10.0196 2.93698V2.93479M10.0196 2.93698V2.93479M10.0196 2.93479V2.93259M10.0196 2.93479V2.93259M10.0196 2.93259V2.9304M10.0196 2.93259V2.9304M10.0196 2.9304V2.92821M10.0196 2.9304V2.92821M10.0196 2.92821V2.92602M10.0196 2.92821V2.92602M10.0196 2.92602V2.92383M10.0196 2.92602V2.92383M10.0196 2.92383V2.92163M10.0196 2.92383V2.92163M10.0196 2.92163V2.91944M10.0196 2.92163V2.91944M10.0196 2.91944V2.91725M10.0196 2.91944V2.91725M10.0196 2.91725V2.91506M10.0196 2.91725V2.91506M10.0196 2.91506V2.91286M10.0196 2.91506V2.91286M10.0196 2.91286V2.91067M10.0196 2.91286V2.91067M10.0196 2.91067V2.90848M10.0196 2.91067V2.90848M10.0196 2.90848V2.90629M10.0196 2.90848V2.90629M10.0196 2.90629V2.9041M10.0196 2.90629V2.9041M10.0196 2.9041V2.9019M10.0196 2.9041V2.9019M10.0196 2.9019V2.89971M10.0196 2.9019V2.89971M10.0196 2.89971V2.89752M10.0196 2.89971V2.89752M10.0196 2.89752V2.89533M10.0196 2.89752V2.89533M10.0196 2.89533V2.89314M10.0196 2.89533V2.89314M10.0196 2.89314V2.89094M10.0196 2.89314V2.89094M10.0196 2.89094V2.88875M10.0196 2.89094V2.88875M10.0196 2.88875V2.88656M10.0196 2.88875V2.88656M10.0196 2.88656V2.88437M10.0196 2.88656V2.88437M10.0196 2.88437V2.88217M10.0196 2.88437V2.88217M10.0196 2.88217V2.87998M10.0196 2.88217V2.87998M10.0196 2.87998V2.87779M10.0196 2.87998V2.87779M10.0196 2.87779V2.8756M10.0196 2.87779V2.8756M10.0196 2.8756V2.87341M10.0196 2.8756V2.87341M10.0196 2.87341V2.87121M10.0196 2.87341V2.87121M10.0196 2.87121V2.86902M10.0196 2.87121V2.86902M10.0196 2.86902V2.86683M10.0196 2.86902V2.86683M10.0196 2.86683V2.86464M10.0196 2.86683V2.86464M10.0196 2.86464V2.86245M10.0196 2.86464V2.86245M10.0196 2.86245V2.86025M10.0196 2.86245V2.86025M10.0196 2.86025V2.85806M10.0196 2.86025V2.85806M10.0196 2.85806V2.85587M10.0196 2.85806V2.85587M10.0196 2.85587V2.85368M10.0196 2.85587V2.85368M10.0196 2.85368V2.85148M10.0196 2.85368V2.85148M10.0196 2.85148V2.84929M10.0196 2.85148V2.84929M10.0196 2.84929V2.8471M10.0196 2.84929V2.8471M10.0196 2.8471V2.84491M10.0196 2.8471V2.84491M10.0196 2.84491V2.84272M10.0196 2.84491V2.84272M10.0196 2.84272V2.84052M10.0196 2.84272V2.84052M10.0196 2.84052V2.83833M10.0196 2.84052V2.83833M10.0196 2.83833V2.83614M10.0196 2.83833V2.83614M10.0196 2.83614V2.83395M10.0196 2.83614V2.83395M10.0196 2.83395V2.83176M10.0196 2.83395V2.83176M10.0196 2.83176V2.82956M10.0196 2.83176V2.82956M10.0196 2.82956V2.82737M10.0196 2.82956V2.82737M10.0196 2.82737V2.82518M10.0196 2.82737V2.82518M10.0196 2.82518V2.82299M10.0196 2.82518V2.82299M10.0196 2.82299V2.82079M10.0196 2.82299V2.82079M10.0196 2.82079V2.8186M10.0196 2.82079V2.8186M10.0196 2.8186V2.81641M10.0196 2.8186V2.81641M10.0196 2.81641V2.81422M10.0196 2.81641V2.81422M10.0196 2.81422V2.81203M10.0196 2.81422V2.81203M10.0196 2.81203V2.80983M10.0196 2.81203V2.80983M10.0196 2.80983V2.80764M10.0196 2.80983V2.80764M10.0196 2.80764V2.80545M10.0196 2.80764V2.80545M10.0196 2.80545V2.80326M10.0196 2.80545V2.80326M10.0196 2.80326V2.80107M10.0196 2.80326V2.80107M10.0196 2.80107V2.79887M10.0196 2.80107V2.79887M10.0196 2.79887V2.79668M10.0196 2.79887V2.79668M10.0196 2.79668V2.79449M10.0196 2.79668V2.79449M10.0196 2.79449V2.7923M10.0196 2.79449V2.7923M10.0196 2.7923V2.7901M10.0196 2.7923V2.7901M10.0196 2.7901V2.78791M10.0196 2.7901V2.78791M10.0196 2.78791V2.78572M10.0196 2.78791V2.78572M10.0196 2.78572V2.78353M10.0196 2.78572V2.78353M10.0196 2.78353V2.78134M10.0196 2.78353V2.78134M10.0196 2.78134V2.77914M10.0196 2.78134V2.77914M10.0196 2.77914V2.77695M10.0196 2.77914V2.77695M10.0196 2.77695V2.77476M10.0196 2.77695V2.77476M10.0196 2.77476V2.77257M10.0196 2.77476V2.77257M10.0196 2.77257V2.77038M10.0196 2.77257V2.77038M10.0196 2.77038V2.76818M10.0196 2.77038V2.76818M10.0196 2.76818V2.76599M10.0196 2.76818V2.76599M10.0196 2.76599V2.7638M10.0196 2.76599V2.7638M10.0196 2.7638V2.76161M10.0196 2.7638V2.76161M10.0196 2.76161V2.75941M10.0196 2.76161V2.75941M10.0196 2.75941V2.75722M10.0196 2.75941V2.75722M10.0196 2.75722V2.75503M10.0196 2.75722V2.75503M10.0196 2.75503V2.75284M10.0196 2.75503V2.75284M10.0196 2.75284V2.75065M10.0196 2.75284V2.75065M10.0196 2.75065V2.74845M10.0196 2.75065V2.74845M10.0196 2.74845V2.74626M10.0196 2.74845V2.74626M10.0196 2.74626V2.74407M10.0196 2.74626V2.74407M10.0196 2.74407V2.74188M10.0196 2.74407V2.74188M10.0196 2.74188V2.73968M10.0196 2.74188V2.73968M10.0196 2.73968V2.73749M10.0196 2.73968V2.73749M10.0196 2.73749V2.7353M10.0196 2.73749V2.7353M10.0196 2.7353V2.73311M10.0196 2.7353V2.73311M10.0196 2.73311V2.73092M10.0196 2.73311V2.73092M10.0196 2.73092V2.72872M10.0196 2.73092V2.72872M10.0196 2.72872V2.72653M10.0196 2.72872V2.72653M10.0196 2.72653V2.72434M10.0196 2.72653V2.72434M10.0196 2.72434V2.72215M10.0196 2.72434V2.72215M10.0196 2.72215V2.71996M10.0196 2.72215V2.71996M10.0196 2.71996V2.71776M10.0196 2.71996V2.71776M10.0196 2.71776V2.71557M10.0196 2.71776V2.71557M10.0196 2.71557V2.71338M10.0196 2.71557V2.71338M10.0196 2.71338V2.71119M10.0196 2.71338V2.71119M10.0196 2.71119V2.70899M10.0196 2.71119V2.70899M10.0196 2.70899V2.7068M10.0196 2.70899V2.7068M10.0196 2.7068V2.70461M10.0196 2.7068V2.70461M10.0196 2.70461V2.70242M10.0196 2.70461V2.70242M10.0196 2.70242V2.70023M10.0196 2.70242V2.70023M10.0196 2.70023V2.69803M10.0196 2.70023V2.69803M10.0196 2.69803V2.69584M10.0196 2.69803V2.69584M10.0196 2.69584V2.69365M10.0196 2.69584V2.69365M10.0196 2.69365V2.69146M10.0196 2.69365V2.69146M10.0196 2.69146V2.68927M10.0196 2.69146V2.68927M10.0196 2.68927V2.68707M10.0196 2.68927V2.68707M10.0196 2.68707V2.68488M10.0196 2.68707V2.68488M10.0196 2.68488V2.68269M10.0196 2.68488V2.68269M10.0196 2.68269V2.6805M10.0196 2.68269V2.6805M10.0196 2.6805V2.6783M10.0196 2.6805V2.6783M10.0196 2.6783V2.67611M10.0196 2.6783V2.67611M10.0196 2.67611V2.67392M10.0196 2.67611V2.67392M10.0196 2.67392V2.67173M10.0196 2.67392V2.67173M10.0196 2.67173V2.66954M10.0196 2.67173V2.66954M10.0196 2.66954V2.66734M10.0196 2.66954V2.66734M10.0196 2.66734V2.66515M10.0196 2.66734V2.66515M10.0196 2.66515V2.66296M10.0196 2.66515V2.66296M10.0196 2.66296V2.66077M10.0196 2.66296V2.66077M10.0196 2.66077V2.65858M10.0196 2.66077V2.65858M10.0196 2.65858V2.65638M10.0196 2.65858V2.65638M10.0196 2.65638V2.65419M10.0196 2.65638V2.65419M10.0196 2.65419V2.652M10.0196 2.65419V2.652M10.0196 2.652V2.64981M10.0196 2.652V2.64981M10.0196 2.64981V2.64761M10.0196 2.64981V2.64761M10.0196 2.64761V2.64542M10.0196 2.64761V2.64542M10.0196 2.64542V2.64323M10.0196 2.64542V2.64323M10.0196 2.64323V2.64104M10.0196 2.64323V2.64104M10.0196 2.64104V2.63885M10.0196 2.64104V2.63885M10.0196 2.63885V2.63665M10.0196 2.63885V2.63665M10.0196 2.63665V2.63446M10.0196 2.63665V2.63446M10.0196 2.63446V2.63227M10.0196 2.63446V2.63227M10.0196 2.63227V2.63008M10.0196 2.63227V2.63008M10.0196 2.63008V2.62789M10.0196 2.63008V2.62789M10.0196 2.62789V2.62569M10.0196 2.62789V2.62569M10.0196 2.62569V2.6235M10.0196 2.62569V2.6235M10.0196 2.6235V2.62131M10.0196 2.6235V2.62131M10.0196 2.62131V2.61912M10.0196 2.62131V2.61912M10.0196 2.61912V2.61692M10.0196 2.61912V2.61692M10.0196 2.61692V2.61473M10.0196 2.61692V2.61473M10.0196 2.61473V2.61254M10.0196 2.61473V2.61254M10.0196 2.61254V2.61213M10.0196 2.61254V2.61213" fill="#1C355E" stroke="#1C355E" stroke-width="0.25"/>
<path d="M5.50593 5.0981L5.59637 5.01182C5.09626 4.48761 4.59241 3.96702 4.08484 3.45383L4.08485 3.45382L4.08352 3.45253C4.03378 3.4037 3.97514 3.36972 3.92477 3.34345C3.90184 3.33149 3.88213 3.32178 3.86397 3.31283C3.8367 3.29939 3.81292 3.28767 3.78699 3.27266L3.7508 3.25173L3.7093 3.25677C3.60234 3.26977 3.50462 3.30116 3.42184 3.3586C3.33807 3.41672 3.27671 3.49662 3.23596 3.59486L3.35142 3.64275M5.50593 5.0981L5.59575 5.01117C5.80857 5.23106 5.82063 5.55504 5.61386 5.76867L5.61286 5.76971L5.61285 5.7697C5.51097 5.87257 5.38125 5.92764 5.24426 5.92312C5.10807 5.91862 4.97757 5.85578 4.87024 5.74715L4.86996 5.74687C4.48942 5.35931 4.11285 4.96953 3.73617 4.57964C3.61063 4.4497 3.48508 4.31974 3.35937 4.18986C3.2837 4.11167 3.22754 4.02006 3.20377 3.91614C3.17975 3.81117 3.19079 3.70218 3.23621 3.59426L3.35142 3.64275M5.50593 5.0981C5.67612 5.27394 5.67974 5.52087 5.52404 5.68174C5.36471 5.84262 5.13659 5.83887 4.95916 5.65929C4.579 5.27213 4.20293 4.88286 3.82634 4.49307C3.70073 4.36306 3.57507 4.23299 3.44919 4.10292C3.32245 3.97198 3.279 3.81485 3.35142 3.64275M5.50593 5.0981C5.00623 4.57432 4.50291 4.05429 3.99596 3.54173C3.94649 3.49317 3.88011 3.46032 3.81415 3.42768C3.78356 3.41255 3.75307 3.39745 3.72439 3.38086C3.53971 3.40331 3.4166 3.48561 3.35142 3.64275" fill="#1C355E" stroke="#1C355E" stroke-width="0.25"/>
<path d="M13.228 5.31265L13.2086 5.34838L13.214 5.38868C13.2434 5.61044 13.3419 5.78046 13.5374 5.87405L13.5374 5.87408L13.5401 5.87533C13.6462 5.92298 13.7543 5.93488 13.8586 5.90939C13.9615 5.88427 14.0511 5.82525 14.1266 5.74723C14.2929 5.57536 14.4598 5.40338 14.6267 5.23134C14.9607 4.88705 15.295 4.54251 15.6259 4.19815C15.7363 4.08396 15.7991 3.94693 15.8034 3.80605C15.8076 3.66417 15.752 3.52919 15.6454 3.4239L15.6453 3.42376C15.4337 3.21528 15.1187 3.23687 14.9032 3.45922C14.4034 3.97188 13.9035 4.48842 13.4071 5.00878C13.3579 5.05963 13.3241 5.11857 13.2979 5.17021C13.284 5.19763 13.2738 5.21936 13.2644 5.23933C13.2528 5.264 13.2425 5.28597 13.228 5.31265Z" fill="#1C355E" stroke="#1C355E" stroke-width="0.25"/>
<path d="M2.77786 9.08918C3.07288 9.16416 3.35778 9.01263 3.42632 8.71984C3.46009 8.57771 3.44228 8.43772 3.37117 8.32082C3.30023 8.20417 3.18303 8.1216 3.03802 8.08074C2.89386 8.04011 2.74675 8.00279 2.60154 7.96595C2.50617 7.94175 2.41164 7.91776 2.3193 7.89319L2.31913 7.89314C2.1487 7.84805 1.97666 7.80377 1.81281 7.7616C1.69209 7.73053 1.57581 7.7006 1.46789 7.67233L1.45423 7.66875L1.44012 7.66831C1.29433 7.66375 1.16422 7.70499 1.06424 7.78674C0.964446 7.86834 0.902514 7.98393 0.881878 8.11398C0.838806 8.38154 1.00033 8.6279 1.2741 8.69982L1.30586 8.57892L1.27333 8.69961C1.77403 8.83457 2.27453 8.96197 2.77786 9.08918ZM2.77786 9.08918C2.77783 9.08917 2.7778 9.08916 2.77777 9.08915L2.80858 8.96801L2.77795 9.0892C2.77792 9.08919 2.77789 9.08918 2.77786 9.08918Z" fill="#1C355E" stroke="#1C355E" stroke-width="0.25"/>
<path d="M15.5606 8.55118L15.5605 8.55118V8.55413C15.5605 8.72834 15.6243 8.8834 15.7347 8.98743C15.8463 9.09264 16.0011 9.14037 16.1631 9.10233L16.1634 9.10226C16.7011 8.97465 17.2348 8.83583 17.7647 8.68959L17.7647 8.68959L17.7653 8.68941C18.039 8.6123 18.17 8.32559 18.1103 8.06933L18.1103 8.06933L18.11 8.0683C18.0455 7.80149 17.7891 7.60936 17.5022 7.6808C16.973 7.81188 16.4468 7.94686 15.9202 8.09318C15.6846 8.15786 15.5654 8.34808 15.5606 8.55118Z" fill="#1C355E" stroke="#1C355E" stroke-width="0.25"/>
</svg>
