<svg width="26" height="28" viewBox="0 0 26 28" fill="none" xmlns="http://www.w3.org/2000/svg">
<path d="M22.6968 27.3454C15.133 27.3454 7.5692 27.3454 0 27.3454C0 18.2285 0 9.11691 0 0C5.24063 0 10.4813 0 15.7219 0C15.7867 0.0747726 15.8462 0.149545 15.9164 0.218977C17.4075 1.69307 18.8933 3.16715 20.3898 4.63056C20.5357 4.77476 20.5951 4.91363 20.5951 5.11658C20.5843 10.121 20.5843 15.1201 20.5843 20.1192C20.5843 20.2313 20.5843 20.3435 20.5843 20.493C21.2813 20.493 21.9404 20.4556 22.5941 20.4984C24.1339 20.6052 25.4198 21.7588 25.7061 23.2382C26.0033 24.7711 25.2361 26.3199 23.8098 26.9822C23.464 27.1531 23.0696 27.2279 22.6968 27.3454ZM14.301 25.7324C14.2524 25.6363 14.2253 25.5829 14.1983 25.5295C13.5986 24.3652 13.6148 23.2115 14.3118 22.1006C15.0141 20.979 16.0785 20.4717 17.4021 20.4663C17.9154 20.4663 18.4233 20.4663 18.9473 20.4663C18.9473 15.9105 18.9473 11.3761 18.9473 6.82567C17.132 6.82567 15.3329 6.82567 13.5068 6.82567C13.5068 5.0792 13.5068 3.34874 13.5068 1.61829C9.53039 1.61829 5.58641 1.61829 1.64242 1.61829C1.64242 9.66703 1.64242 17.6997 1.64242 25.7324C5.86194 25.7324 10.0653 25.7324 14.301 25.7324ZM18.9581 22.1006C18.299 22.1006 17.6723 22.0686 17.0456 22.1113C16.246 22.1647 15.603 22.7682 15.441 23.5427C15.2789 24.3225 15.6355 25.1129 16.3324 25.4921C17.1698 25.9514 18.0721 25.6577 18.9527 25.7592C18.9581 24.5094 18.9581 23.3077 18.9581 22.1006ZM20.6005 25.7111C21.2759 25.7111 21.9458 25.7645 22.5995 25.7004C23.4586 25.6149 24.0907 24.8726 24.1447 24.002C24.1988 23.1848 23.6585 22.3463 22.8265 22.1861C22.1079 22.0472 21.3515 22.0793 20.5951 22.0365C20.6005 23.3077 20.6005 24.5147 20.6005 25.7111ZM18.5853 5.22874C17.4346 4.09113 16.2784 2.94818 15.1492 1.83727C15.1492 2.92681 15.1492 4.08045 15.1492 5.22874C16.3216 5.22874 17.4724 5.22874 18.5853 5.22874Z" fill="#1D3158"/>
<path d="M12.8577 10.25C12.8577 10.7574 12.8577 11.2701 12.8577 11.7989C10.0321 11.7989 7.21729 11.7989 4.38086 11.7989C4.38086 11.2862 4.38086 10.7841 4.38086 10.25C7.19567 10.25 10.0159 10.25 12.8577 10.25Z" fill="#1D3158"/>
<path d="M12.8523 15.2206C10.0213 15.2206 7.21188 15.2206 4.38086 15.2206C4.38086 14.6972 4.38086 14.1845 4.38086 13.6504C7.20108 13.6504 10.0159 13.6504 12.8523 13.6504C12.8523 14.1685 12.8523 14.6812 12.8523 15.2206Z" fill="#1D3158"/>
<path d="M4.37695 18.6352C4.37695 18.1064 4.37695 17.5991 4.37695 17.0703C7.20797 17.0703 10.0282 17.0703 12.8592 17.0703C12.8592 17.5991 12.8592 18.1118 12.8592 18.6352C10.0336 18.6352 7.22418 18.6352 4.37695 18.6352Z" fill="#1D3158"/>
<path d="M4.37695 22.0527C4.37695 21.5239 4.37695 21.0112 4.37695 20.4824C7.20258 20.4824 10.012 20.4824 12.8484 20.4824C12.8484 21.0005 12.8484 21.5186 12.8484 22.0527C10.0336 22.0527 7.22419 22.0527 4.37695 22.0527Z" fill="#1D3158"/>
<path d="M8.37883 3.49219C8.37883 3.96753 8.37883 4.42684 8.37883 4.91821C8.86508 4.91821 9.34051 4.91821 9.82676 4.91821C9.82676 5.45764 9.82676 5.97036 9.82676 6.51513C9.36212 6.51513 8.88669 6.51513 8.38964 6.51513C8.38964 7.01184 8.38964 7.4765 8.38964 7.96786C7.83856 7.96786 7.3145 7.96786 6.76342 7.96786C6.76342 7.5032 6.76342 7.0332 6.76342 6.5365C6.26637 6.5365 5.79633 6.5365 5.30469 6.5365C5.30469 5.99173 5.30469 5.47366 5.30469 4.93423C5.78553 4.93423 6.25016 4.93423 6.74181 4.93423C6.74181 4.44821 6.74181 3.98355 6.74181 3.49753C7.28748 3.49219 7.81695 3.49219 8.37883 3.49219Z" fill="#1D3158"/>
<path d="M14.3281 11.792C14.3281 11.2686 14.3281 10.7612 14.3281 10.2324C14.9278 10.2324 15.5221 10.2324 16.138 10.2324C16.138 10.7451 16.138 11.2579 16.138 11.792C15.5437 11.792 14.9494 11.792 14.3281 11.792Z" fill="#1D3158"/>
<path d="M14.3281 15.2158C14.3281 14.687 14.3281 14.185 14.3281 13.6562C14.9278 13.6562 15.5275 13.6562 16.138 13.6562C16.138 14.169 16.138 14.6817 16.138 15.2158C15.5437 15.2158 14.9494 15.2158 14.3281 15.2158Z" fill="#1D3158"/>
<path d="M16.1424 17.0645C16.1424 17.5985 16.1424 18.1113 16.1424 18.64C15.5373 18.64 14.9484 18.64 14.3379 18.64C14.3379 18.1219 14.3379 17.5985 14.3379 17.0645C14.9376 17.0645 15.5265 17.0645 16.1424 17.0645Z" fill="#1D3158"/>
</svg>
